# File created by Blade
# Date/Time:  Mon Sep 22 17:23:16 2014
# Frame Rate: 120.000 fps
#------------------------------------------------------
:FULLY-SPECIFIED
:DEGREES
1218
root 5.283645 37.328266 -0.834439 -23.588960 4.941866 -4.504034
RightUpLeg -63.565306 -4.925017 -2.721788
RightLeg 117.512344 -0.000000 -0.000000
RightFoot -5.825638 -16.116984 11.952632
RightToeBase -2.548305 -0.000000 0.000000
LeftUpLeg 23.195169 1.155505 -4.705276
LeftLeg 11.447427 -0.000000 -0.000000
LeftFoot -15.226027 15.346790 -11.756355
LeftToeBase 1.078349 -0.000000 -0.000000
Spine 31.463099 -9.932106 0.811401
RightShoulder 5.666598 -24.513512 -8.495195
RightArm 21.025810 -21.445134 63.439041
RightForeArm -173.371135 -0.000000 49.626555
RightHand 98.186389 -0.000000 -165.483870
RightHandThumb1 -24.326973 -0.000000 -32.862282
LeftShoulder -13.583339 27.777435 7.080827
LeftArm 78.915037 -11.019147 -60.257048
LeftForeArm 48.161482 0.000000 74.609968
LeftHand -26.132223 -0.000000 -6.649697
LeftHandThumb1 -26.253704 0.000000 33.147579
Head 2.228565 5.837281 7.614998
1219
root 5.277554 37.329502 -0.834207 -23.600697 4.871716 -4.528104
RightUpLeg -63.557910 -4.912872 -2.647755
RightLeg 117.011654 -0.000000 -0.000000
RightFoot -5.880702 -16.238520 12.064592
RightToeBase -2.259670 -0.000000 0.000000
LeftUpLeg 23.220689 1.069910 -4.718751
LeftLeg 11.426836 -0.000000 -0.000000
LeftFoot -15.261077 15.447822 -11.810378
LeftToeBase 1.075514 -0.000000 -0.000000
Spine 31.410256 -9.909149 0.756436
RightShoulder 5.539217 -24.552711 -8.443319
RightArm 20.971629 -21.366717 63.478546
RightForeArm -173.399096 0.000000 49.830842
RightHand 98.210683 -0.000000 -165.503654
RightHandThumb1 -24.326973 -0.000000 -32.862282
LeftShoulder -13.583076 27.794852 7.060127
LeftArm 78.875128 -11.019927 -60.291588
LeftForeArm 48.206278 -0.000000 74.606176
LeftHand -26.148335 -0.000000 -6.659895
LeftHandThumb1 -26.253704 0.000000 33.147579
Head 2.322222 5.855083 7.587091
1220
root 5.270988 37.331699 -0.833234 -23.624222 4.787515 -4.561268
RightUpLeg -63.530212 -4.891277 -2.533042
RightLeg 116.537372 -0.000000 -0.000000
RightFoot -5.887927 -16.387586 12.149516
RightToeBase -2.204998 -0.000000 0.000000
LeftUpLeg 23.250506 0.994890 -4.713113
LeftLeg 11.423193 -0.000000 -0.000000
LeftFoot -15.277613 15.550858 -11.836098
LeftToeBase 1.036959 -0.000000 -0.000000
Spine 31.371028 -9.889811 0.713821
RightShoulder 5.422822 -24.676196 -8.404293
RightArm 20.987185 -21.235039 63.479096
RightForeArm -173.444550 0.000000 50.041012
RightHand 98.186601 0.000000 -165.441938
RightHandThumb1 -24.326973 -0.000000 -32.862282
LeftShoulder -13.606995 27.836122 7.020100
LeftArm 78.864675 -11.012895 -60.379227
LeftForeArm 48.292936 0.000000 74.617285
LeftHand -26.086184 -0.000000 -6.763964
LeftHandThumb1 -26.253704 0.000000 33.147579
Head 2.373875 5.924302 7.515231
1221
root 5.261812 37.334557 -0.830512 -23.644695 4.707915 -4.594262
RightUpLeg -63.513907 -4.862606 -2.404060
RightLeg 116.114278 -0.000000 -0.000000
RightFoot -5.822270 -16.507723 12.251634
RightToeBase -2.228193 -0.000000 0.000000
LeftUpLeg 23.270735 0.922845 -4.702528
LeftLeg 11.434440 -0.000000 -0.000000
LeftFoot -15.287545 15.650716 -11.861366
LeftToeBase 0.965884 -0.000000 -0.000000
Spine 31.331670 -9.870445 0.653827
RightShoulder 5.337511 -24.719294 -8.334824
RightArm 20.882587 -21.150294 63.484925
RightForeArm -173.448826 -0.000000 50.256962
RightHand 98.192632 -0.000000 -165.454420
RightHandThumb1 -24.326973 -0.000000 -32.862282
LeftShoulder -13.674969 27.870694 6.942276
LeftArm 78.882956 -11.007053 -60.416543
LeftForeArm 48.391400 0.000000 74.623028
LeftHand -26.136707 -0.000000 -6.877745
LeftHandThumb1 -26.253704 0.000000 33.147579
Head 2.440152 5.883457 7.471803
1222
root 5.254638 37.336936 -0.828201 -23.670886 4.626468 -4.614517
RightUpLeg -63.494175 -4.830883 -2.276959
RightLeg 115.719209 -0.000000 -0.000000
RightFoot -5.764857 -16.593262 12.491083
RightToeBase -2.027728 -0.000000 0.000000
LeftUpLeg 23.297946 0.840278 -4.716913
LeftLeg 11.441960 -0.000000 -0.000000
LeftFoot -15.306750 15.767421 -11.893953
LeftToeBase 0.966587 -0.000000 -0.000000
Spine 31.294116 -9.846571 0.593890
RightShoulder 5.229164 -24.799480 -8.290325
RightArm 20.872485 -21.077510 63.485537
RightForeArm -173.472690 -0.000000 50.378345
RightHand 98.189025 -0.000000 -165.315763
RightHandThumb1 -24.326973 -0.000000 -32.862282
LeftShoulder -13.754747 27.933468 6.844742
LeftArm 78.952913 -10.998394 -60.438762
LeftForeArm 48.499033 0.000000 74.593578
LeftHand -26.358331 -0.000000 -6.908572
LeftHandThumb1 -26.253704 0.000000 33.147579
Head 2.483721 6.009931 7.442186
1223
root 5.244762 37.337071 -0.825302 -23.697686 4.550592 -4.623884
RightUpLeg -63.485483 -4.788186 -2.145361
RightLeg 115.381762 -0.000000 -0.000000
RightFoot -5.578676 -16.688691 12.536613
RightToeBase -2.068129 -0.000000 0.000000
LeftUpLeg 23.315350 0.792996 -4.723851
LeftLeg 11.482373 -0.000000 -0.000000
LeftFoot -15.282412 15.856701 -11.829085
LeftToeBase 0.758718 -0.000000 -0.000000
Spine 31.269534 -9.799383 0.496162
RightShoulder 5.140539 -24.859574 -8.212130
RightArm 20.795455 -21.011311 63.486988
RightForeArm -173.477621 -0.000000 50.540244
RightHand 98.258254 -0.000000 -165.197595
RightHandThumb1 -24.326973 -0.000000 -32.862282
LeftShoulder -13.838138 27.959236 6.832559
LeftArm 78.978944 -10.944054 -60.494471
LeftForeArm 48.572787 -0.000000 74.588574
LeftHand -26.450283 -0.000000 -6.968145
LeftHandThumb1 -26.253704 0.000000 33.147579
Head 2.490532 5.976394 7.433442
1224
root 5.236293 37.336773 -0.822034 -23.724383 4.490686 -4.627112
RightUpLeg -63.478556 -4.754968 -2.031860
RightLeg 115.075805 -0.000000 -0.000000
RightFoot -5.407157 -16.663458 12.732339
RightToeBase -1.712979 -0.000000 0.000000
LeftUpLeg 23.335047 0.757986 -4.732180
LeftLeg 11.498690 -0.000000 -0.000000
LeftFoot -15.344951 15.951150 -11.885040
LeftToeBase 0.865873 -0.000000 -0.000000
Spine 31.237766 -9.754027 0.397079
RightShoulder 5.038488 -24.945959 -8.139300
RightArm 20.760557 -20.964415 63.468696
RightForeArm -173.513509 -0.000000 50.636127
RightHand 98.221238 -0.000000 -164.903382
RightHandThumb1 -24.326973 -0.000000 -32.862282
LeftShoulder -13.905783 28.001315 6.811368
LeftArm 79.008681 -10.907644 -60.561154
LeftForeArm 48.638015 -0.000000 74.581377
LeftHand -26.342859 -0.000000 -7.044019
LeftHandThumb1 -26.253704 0.000000 33.147579
Head 2.525748 5.993726 7.476892
1225
root 5.228882 37.335335 -0.818382 -23.739600 4.439258 -4.625688
RightUpLeg -63.484087 -4.721532 -1.912653
RightLeg 114.798772 -0.000000 -0.000000
RightFoot -5.158887 -16.638665 12.774928
RightToeBase -1.698545 -0.000000 0.000000
LeftUpLeg 23.346775 0.740399 -4.740706
LeftLeg 11.523902 -0.000000 -0.000000
LeftFoot -15.363289 16.025475 -11.875793
LeftToeBase 0.856767 -0.000000 -0.000000
Spine 31.183853 -9.714963 0.297778
RightShoulder 4.968062 -25.062905 -8.080410
RightArm 20.734793 -20.897710 63.455484
RightForeArm -173.604256 -0.000000 50.699802
RightHand 98.158812 -0.000000 -164.926232
RightHandThumb1 -24.326973 -0.000000 -32.862282
LeftShoulder -13.980712 28.034150 6.783861
LeftArm 79.031211 -10.865464 -60.589137
LeftForeArm 48.645160 -0.000000 74.567935
LeftHand -26.264453 -0.000000 -7.091567
LeftHandThumb1 -26.253704 0.000000 33.147579
Head 2.561619 6.035881 7.494022
1226
root 5.220916 37.332807 -0.815668 -23.760410 4.410620 -4.622211
RightUpLeg -63.497204 -4.703962 -1.800198
RightLeg 114.572410 -0.000000 -0.000000
RightFoot -4.926294 -16.561492 12.867059
RightToeBase -1.505904 -0.000000 0.000000
LeftUpLeg 23.371367 0.741017 -4.735960
LeftLeg 11.524488 -0.000000 -0.000000
LeftFoot -15.375207 16.052889 -11.847963
LeftToeBase 0.818436 -0.000000 -0.000000
Spine 31.142843 -9.680960 0.197210
RightShoulder 4.888659 -25.142642 -8.026581
RightArm 20.667065 -20.857909 63.467772
RightForeArm -173.564201 0.000000 50.756467
RightHand 98.165349 -0.000000 -165.077894
RightHandThumb1 -24.326973 -0.000000 -32.862282
LeftShoulder -14.031444 28.016673 6.761920
LeftArm 79.009840 -10.829245 -60.572964
LeftForeArm 48.639486 -0.000000 74.562315
LeftHand -26.249865 -0.000000 -7.148591
LeftHandThumb1 -26.253704 0.000000 33.147579
Head 2.590924 6.156290 7.570586
1227
root 5.214910 37.329390 -0.812420 -23.769731 4.407464 -4.591568
RightUpLeg -63.527297 -4.702921 -1.712962
RightLeg 114.373259 -0.000000 -0.000000
RightFoot -4.703444 -16.480020 12.922999
RightToeBase -1.431492 -0.000000 0.000000
LeftUpLeg 23.389457 0.782813 -4.741306
LeftLeg 11.520558 -0.000000 -0.000000
LeftFoot -15.379515 16.038733 -11.789067
LeftToeBase 0.814497 -0.000000 -0.000000
Spine 31.086263 -9.649123 0.046939
RightShoulder 4.811802 -25.234658 -7.952502
RightArm 20.615480 -20.846428 63.460877
RightForeArm -173.591552 -0.000000 50.776831
RightHand 98.209761 -0.000000 -165.329748
RightHandThumb1 -24.326973 -0.000000 -32.862282
LeftShoulder -14.038985 27.903457 6.821013
LeftArm 78.853911 -10.751064 -60.533231
LeftForeArm 48.700246 -0.000000 74.587126
LeftHand -26.282939 -0.000000 -7.176247
LeftHandThumb1 -26.253704 0.000000 33.147579
Head 2.639146 6.152187 7.626396
1228
root 5.208072 37.325195 -0.810067 -23.772323 4.423240 -4.544984
RightUpLeg -63.582247 -4.721594 -1.624115
RightLeg 114.223994 -0.000000 -0.000000
RightFoot -4.485563 -16.409813 12.932133
RightToeBase -1.408616 -0.000000 0.000000
LeftUpLeg 23.401274 0.843306 -4.746527
LeftLeg 11.517029 -0.000000 -0.000000
LeftFoot -15.388703 15.967884 -11.790380
LeftToeBase 0.831065 -0.000000 -0.000000
Spine 31.026974 -9.602839 -0.147020
RightShoulder 4.752058 -25.308913 -7.854315
RightArm 20.540357 -20.835017 63.444144
RightForeArm -173.505178 0.000000 50.743446
RightHand 98.206480 -0.000000 -165.182473
RightHandThumb1 -24.326973 -0.000000 -32.862282
LeftShoulder -14.091822 27.921148 6.843283
LeftArm 78.884590 -10.711712 -60.526588
LeftForeArm 48.770485 0.000000 74.556302
LeftHand -26.310149 -0.000000 -7.212702
LeftHandThumb1 -26.253704 0.000000 33.147579
Head 2.680545 6.036893 7.683192
